<svg width="235" height="44" viewBox="0 0 235 44" fill="none" xmlns="http://www.w3.org/2000/svg">
<rect x="0.5" y="0.5" width="233.5" height="43" rx="3.5" fill="white"/>
<path fill-rule="evenodd" clip-rule="evenodd" d="M61.75 22.1899C61.75 21.599 61.697 21.0308 61.5985 20.4854H53.75V23.7088H58.2348C58.0417 24.7505 57.4545 25.6331 56.572 26.224V28.3149H59.2652C60.8409 26.8641 61.75 24.7278 61.75 22.1899Z" fill="#4285F4"/>
<path fill-rule="evenodd" clip-rule="evenodd" d="M53.7507 30.334C56.0007 30.334 57.887 29.5878 59.2658 28.315L56.5727 26.2241C55.8264 26.7241 54.8719 27.0196 53.7507 27.0196C51.5802 27.0196 49.7431 25.5537 49.0878 23.584H46.3037V25.7431C47.6749 28.4666 50.4931 30.334 53.7507 30.334Z" fill="#34A853"/>
<path fill-rule="evenodd" clip-rule="evenodd" d="M49.087 23.5836C48.9203 23.0836 48.8256 22.5495 48.8256 22.0002C48.8256 21.451 48.9203 20.9169 49.087 20.4169V18.2578H46.3029C45.7385 19.3828 45.4165 20.6555 45.4165 22.0002C45.4165 23.3449 45.7385 24.6177 46.3029 25.7427L49.087 23.5836Z" fill="#FBBC05"/>
<path fill-rule="evenodd" clip-rule="evenodd" d="M53.7507 16.9814C54.9742 16.9814 56.0727 17.4018 56.9363 18.2276L59.3264 15.8374C57.8833 14.4927 55.9969 13.667 53.7507 13.667C50.4931 13.667 47.6749 15.5344 46.3037 18.2579L49.0878 20.417C49.7431 18.4473 51.5802 16.9814 53.7507 16.9814Z" fill="#EA4335"/>
<path d="M72.982 16.822C72.982 16.682 73.0473 16.612 73.178 16.612H74.494C74.6153 16.612 74.676 16.682 74.676 16.822V25.572C74.676 25.6747 74.7227 25.726 74.816 25.726H79.548C79.6787 25.726 79.744 25.782 79.744 25.894V26.818C79.744 26.874 79.7253 26.9207 79.688 26.958C79.66 26.986 79.6133 27 79.548 27H73.22C73.1267 27 73.0613 26.9813 73.024 26.944C72.996 26.9067 72.982 26.8507 72.982 26.776V16.822ZM84.1118 27.14C83.3931 27.14 82.7631 26.9813 82.2218 26.664C81.6804 26.3373 81.2604 25.8893 80.9618 25.32C80.6631 24.7413 80.5138 24.0787 80.5138 23.332C80.5138 22.5573 80.6678 21.8807 80.9758 21.302C81.2838 20.714 81.7084 20.2567 82.2498 19.93C82.8004 19.6033 83.4258 19.44 84.1258 19.44C84.8538 19.44 85.4838 19.608 86.0158 19.944C86.5571 20.2707 86.9771 20.728 87.2758 21.316C87.5744 21.8947 87.7238 22.562 87.7238 23.318C87.7238 24.0647 87.5698 24.7273 87.2618 25.306C86.9631 25.8753 86.5431 26.3233 86.0018 26.65C85.4604 26.9767 84.8304 27.14 84.1118 27.14ZM84.1398 26.09C84.5784 26.09 84.9518 25.978 85.2598 25.754C85.5678 25.53 85.8011 25.2127 85.9598 24.802C86.1278 24.382 86.2118 23.878 86.2118 23.29C86.2118 22.702 86.1278 22.198 85.9598 21.778C85.8011 21.358 85.5631 21.036 85.2458 20.812C84.9378 20.5787 84.5644 20.462 84.1258 20.462C83.6871 20.462 83.3091 20.5787 82.9918 20.812C82.6838 21.036 82.4458 21.358 82.2778 21.778C82.1098 22.198 82.0258 22.702 82.0258 23.29C82.0258 23.878 82.1098 24.382 82.2778 24.802C82.4458 25.2127 82.6838 25.53 82.9918 25.754C83.3091 25.978 83.6918 26.09 84.1398 26.09ZM96.2446 19.398C96.338 19.398 96.4033 19.4167 96.4406 19.454C96.4873 19.4913 96.5106 19.5567 96.5106 19.65V20.28C96.5106 20.3827 96.4873 20.4573 96.4406 20.504C96.4033 20.5507 96.3333 20.5693 96.2306 20.56C96.0813 20.5507 95.9506 20.5507 95.8386 20.56C95.7266 20.5693 95.6193 20.5927 95.5166 20.63C95.2833 20.7047 95.19 20.812 95.2366 20.952C95.274 21.0453 95.316 21.162 95.3626 21.302C95.4093 21.4327 95.4326 21.6007 95.4326 21.806C95.4326 22.2167 95.3206 22.5947 95.0966 22.94C94.8726 23.2853 94.5273 23.5607 94.0606 23.766C93.594 23.9713 93.006 24.074 92.2966 24.074C91.858 24.074 91.508 24.102 91.2466 24.158C90.9946 24.2047 90.8126 24.2747 90.7006 24.368C90.5886 24.452 90.5326 24.5407 90.5326 24.634C90.5326 24.774 90.6213 24.8767 90.7986 24.942C90.9853 24.998 91.284 25.0353 91.6946 25.054L93.5566 25.166C94.4246 25.2127 95.0593 25.4133 95.4606 25.768C95.862 26.1227 96.0626 26.58 96.0626 27.14C96.0626 27.84 95.7406 28.4 95.0966 28.82C94.462 29.24 93.5426 29.45 92.3386 29.45C91.1066 29.45 90.1686 29.2867 89.5246 28.96C88.89 28.6333 88.5726 28.1573 88.5726 27.532C88.5726 27.2053 88.6893 26.9207 88.9226 26.678C89.156 26.4353 89.478 26.2207 89.8886 26.034C90.0006 25.9873 90.0006 25.936 89.8886 25.88C89.6833 25.7773 89.5153 25.656 89.3846 25.516C89.254 25.3667 89.1886 25.1893 89.1886 24.984C89.1886 24.8347 89.2353 24.6947 89.3286 24.564C89.4313 24.424 89.5713 24.2933 89.7486 24.172C89.926 24.0507 90.136 23.948 90.3786 23.864C90.4253 23.8453 90.4533 23.822 90.4626 23.794C90.472 23.766 90.444 23.7333 90.3786 23.696C89.968 23.4907 89.6553 23.234 89.4406 22.926C89.2353 22.6087 89.1326 22.2353 89.1326 21.806C89.1326 21.0967 89.4126 20.532 89.9726 20.112C90.542 19.6827 91.3586 19.468 92.4226 19.468C92.9173 19.468 93.3373 19.524 93.6826 19.636C94.0373 19.748 94.3313 19.902 94.5646 20.098C94.6206 20.1447 94.6766 20.168 94.7326 20.168C94.7886 20.168 94.84 20.14 94.8866 20.084C94.9986 19.972 95.1293 19.8647 95.2786 19.762C95.428 19.65 95.5866 19.5613 95.7546 19.496C95.9226 19.4307 96.086 19.398 96.2446 19.398ZM92.2966 23.234C92.894 23.234 93.3373 23.108 93.6266 22.856C93.916 22.5947 94.0606 22.2447 94.0606 21.806C94.0606 21.3487 93.916 20.9893 93.6266 20.728C93.3373 20.4573 92.894 20.322 92.2966 20.322C91.718 20.322 91.27 20.4573 90.9526 20.728C90.6446 20.9893 90.4906 21.3487 90.4906 21.806C90.4906 22.2447 90.6446 22.5947 90.9526 22.856C91.27 23.108 91.718 23.234 92.2966 23.234ZM91.1206 26.244C90.9526 26.2347 90.7706 26.2767 90.5746 26.37C90.3786 26.4633 90.206 26.594 90.0566 26.762C89.9166 26.93 89.8466 27.126 89.8466 27.35C89.8466 27.6113 89.94 27.8353 90.1266 28.022C90.3133 28.218 90.598 28.3673 90.9806 28.47C91.3726 28.5727 91.872 28.624 92.4786 28.624C93.2066 28.624 93.762 28.5167 94.1446 28.302C94.5273 28.0967 94.7186 27.784 94.7186 27.364C94.7186 27.084 94.616 26.8553 94.4106 26.678C94.2053 26.5007 93.8693 26.398 93.4026 26.37L91.1206 26.244ZM99.3292 26.734C99.3292 26.8367 99.3059 26.9067 99.2592 26.944C99.2219 26.9813 99.1519 27 99.0492 27H98.0972C97.9946 27 97.9246 26.986 97.8872 26.958C97.8592 26.9207 97.8452 26.86 97.8452 26.776V19.79C97.8452 19.65 97.9106 19.58 98.0412 19.58H99.1612C99.2732 19.58 99.3292 19.6453 99.3292 19.776V26.734ZM99.3712 18.096C99.3712 18.292 99.2779 18.39 99.0912 18.39H98.0552C97.9526 18.39 97.8826 18.3667 97.8452 18.32C97.8172 18.2733 97.8032 18.208 97.8032 18.124V16.85C97.8032 16.6913 97.8732 16.612 98.0132 16.612H99.1752C99.3059 16.612 99.3712 16.6867 99.3712 16.836V18.096ZM101.528 27C101.379 27 101.304 26.9253 101.304 26.776V19.79C101.304 19.65 101.365 19.58 101.486 19.58H102.592C102.704 19.58 102.76 19.6407 102.76 19.762V20.532C102.76 20.5787 102.77 20.6113 102.788 20.63C102.816 20.6393 102.854 20.6207 102.9 20.574C103.19 20.3407 103.465 20.14 103.726 19.972C103.988 19.7947 104.254 19.664 104.524 19.58C104.795 19.4867 105.089 19.44 105.406 19.44C106.116 19.44 106.666 19.636 107.058 20.028C107.45 20.42 107.646 20.938 107.646 21.582V26.748C107.646 26.916 107.567 27 107.408 27H106.372C106.298 27 106.242 26.986 106.204 26.958C106.176 26.9207 106.162 26.86 106.162 26.776V21.876C106.162 21.4653 106.055 21.1433 105.84 20.91C105.626 20.6767 105.294 20.56 104.846 20.56C104.594 20.56 104.361 20.602 104.146 20.686C103.932 20.7607 103.717 20.8773 103.502 21.036C103.288 21.1853 103.05 21.3767 102.788 21.61V26.762C102.788 26.9207 102.7 27 102.522 27H101.528ZM122.203 19.58C122.278 19.58 122.329 19.6033 122.357 19.65C122.385 19.6967 122.385 19.7527 122.357 19.818L120.173 26.804C120.155 26.8787 120.122 26.93 120.075 26.958C120.038 26.986 119.977 27 119.893 27H119.081C118.913 27 118.806 26.93 118.759 26.79L117.247 21.988C117.21 21.904 117.173 21.862 117.135 21.862C117.107 21.862 117.084 21.904 117.065 21.988L115.595 26.804C115.577 26.8787 115.544 26.93 115.497 26.958C115.46 26.986 115.404 27 115.329 27H114.461C114.293 27 114.191 26.93 114.153 26.79L111.927 19.832C111.909 19.7573 111.913 19.6967 111.941 19.65C111.969 19.6033 112.021 19.58 112.095 19.58H113.187C113.243 19.58 113.295 19.5987 113.341 19.636C113.388 19.664 113.421 19.706 113.439 19.762L114.979 24.746C114.998 24.83 115.026 24.872 115.063 24.872C115.11 24.872 115.147 24.8253 115.175 24.732L116.687 19.748C116.706 19.692 116.734 19.65 116.771 19.622C116.809 19.594 116.86 19.58 116.925 19.58H117.737C117.793 19.58 117.845 19.5987 117.891 19.636C117.938 19.664 117.966 19.706 117.975 19.762L119.543 24.746C119.571 24.83 119.604 24.872 119.641 24.872C119.679 24.872 119.711 24.8253 119.739 24.732L121.223 19.748C121.251 19.7013 121.284 19.664 121.321 19.636C121.368 19.5987 121.424 19.58 121.489 19.58H122.203ZM125.224 26.734C125.224 26.8367 125.2 26.9067 125.154 26.944C125.116 26.9813 125.046 27 124.944 27H123.992C123.889 27 123.819 26.986 123.782 26.958C123.754 26.9207 123.74 26.86 123.74 26.776V19.79C123.74 19.65 123.805 19.58 123.936 19.58H125.056C125.168 19.58 125.224 19.6453 125.224 19.776V26.734ZM125.266 18.096C125.266 18.292 125.172 18.39 124.986 18.39H123.95C123.847 18.39 123.777 18.3667 123.74 18.32C123.712 18.2733 123.698 18.208 123.698 18.124V16.85C123.698 16.6913 123.768 16.612 123.908 16.612H125.07C125.2 16.612 125.266 16.6867 125.266 16.836V18.096ZM129.523 20.644C129.439 20.644 129.397 20.6907 129.397 20.784V24.886C129.397 25.2873 129.471 25.5627 129.621 25.712C129.77 25.852 129.999 25.922 130.307 25.922H131.203C131.259 25.922 131.301 25.9407 131.329 25.978C131.357 26.006 131.371 26.0433 131.371 26.09V26.692C131.371 26.8133 131.301 26.8927 131.161 26.93C131.039 26.9487 130.89 26.9627 130.713 26.972C130.535 26.9813 130.358 26.9907 130.181 27C130.013 27 129.863 27 129.733 27C129.126 27 128.669 26.86 128.361 26.58C128.062 26.2907 127.913 25.8473 127.913 25.25V20.812C127.913 20.7 127.866 20.644 127.773 20.644H126.723C126.601 20.644 126.541 20.588 126.541 20.476V19.734C126.541 19.6313 126.597 19.58 126.709 19.58H127.829C127.903 19.58 127.941 19.538 127.941 19.454L128.109 17.256C128.118 17.1253 128.174 17.06 128.277 17.06H129.243C129.364 17.06 129.425 17.1347 129.425 17.284V19.454C129.425 19.538 129.467 19.58 129.551 19.58H131.231C131.343 19.58 131.399 19.6313 131.399 19.734V20.476C131.399 20.588 131.333 20.644 131.203 20.644H129.523ZM133.056 27C132.907 27 132.832 26.9253 132.832 26.776V16.822C132.832 16.682 132.888 16.612 133 16.612H134.106C134.218 16.612 134.274 16.6727 134.274 16.794V20.49C134.274 20.5367 134.283 20.5693 134.302 20.588C134.33 20.5973 134.367 20.5787 134.414 20.532C134.731 20.28 135.021 20.0747 135.282 19.916C135.553 19.7573 135.819 19.6407 136.08 19.566C136.351 19.482 136.635 19.44 136.934 19.44C137.653 19.44 138.203 19.636 138.586 20.028C138.969 20.4107 139.16 20.9333 139.16 21.596V26.748C139.16 26.916 139.081 27 138.922 27H137.886C137.811 27 137.755 26.986 137.718 26.958C137.69 26.9207 137.676 26.86 137.676 26.776V21.876C137.676 21.4653 137.569 21.1433 137.354 20.91C137.149 20.6767 136.822 20.56 136.374 20.56C136.122 20.56 135.884 20.602 135.66 20.686C135.445 20.7607 135.231 20.8773 135.016 21.036C134.801 21.1853 134.568 21.3767 134.316 21.61V26.762C134.316 26.9207 134.227 27 134.05 27H133.056ZM148.299 27.14C147.394 27.14 146.605 26.9253 145.933 26.496C145.261 26.0667 144.743 25.4553 144.379 24.662C144.024 23.8687 143.847 22.9307 143.847 21.848C143.847 20.728 144.034 19.7667 144.407 18.964C144.79 18.1613 145.322 17.5453 146.003 17.116C146.684 16.6867 147.478 16.472 148.383 16.472C149.064 16.472 149.685 16.6073 150.245 16.878C150.814 17.1487 151.276 17.5033 151.631 17.942C151.995 18.3713 152.219 18.8333 152.303 19.328C152.322 19.4213 152.322 19.4867 152.303 19.524C152.284 19.552 152.242 19.5753 152.177 19.594L150.903 19.79C150.847 19.7993 150.805 19.79 150.777 19.762C150.758 19.734 150.744 19.6873 150.735 19.622C150.67 19.2673 150.53 18.95 150.315 18.67C150.1 18.3807 149.825 18.152 149.489 17.984C149.162 17.8067 148.784 17.718 148.355 17.718C147.776 17.718 147.282 17.8673 146.871 18.166C146.46 18.4647 146.148 18.9127 145.933 19.51C145.728 20.1073 145.625 20.8587 145.625 21.764C145.625 22.716 145.732 23.4953 145.947 24.102C146.162 24.7087 146.474 25.1613 146.885 25.46C147.305 25.7493 147.809 25.894 148.397 25.894C148.798 25.894 149.153 25.8287 149.461 25.698C149.769 25.5673 150.026 25.39 150.231 25.166C150.436 24.942 150.595 24.6993 150.707 24.438C150.819 24.1767 150.889 23.9153 150.917 23.654L150.931 22.954C150.95 22.842 150.903 22.786 150.791 22.786H148.691C148.635 22.786 148.593 22.7767 148.565 22.758C148.537 22.73 148.523 22.6833 148.523 22.618V21.876C148.523 21.7733 148.574 21.722 148.677 21.722L152.233 21.736C152.326 21.736 152.396 21.7593 152.443 21.806C152.49 21.8433 152.513 21.8947 152.513 21.96V26.818C152.513 26.8833 152.494 26.93 152.457 26.958C152.429 26.986 152.387 27 152.331 27H151.967C151.902 27 151.841 26.9907 151.785 26.972C151.738 26.944 151.701 26.8927 151.673 26.818L151.449 25.614C151.44 25.5673 151.421 25.544 151.393 25.544C151.374 25.544 151.346 25.5673 151.309 25.614C151.141 25.8753 150.922 26.1227 150.651 26.356C150.39 26.5893 150.063 26.7807 149.671 26.93C149.288 27.07 148.831 27.14 148.299 27.14ZM157.625 27.14C156.907 27.14 156.277 26.9813 155.735 26.664C155.194 26.3373 154.774 25.8893 154.475 25.32C154.177 24.7413 154.027 24.0787 154.027 23.332C154.027 22.5573 154.181 21.8807 154.489 21.302C154.797 20.714 155.222 20.2567 155.763 19.93C156.314 19.6033 156.939 19.44 157.639 19.44C158.367 19.44 158.997 19.608 159.529 19.944C160.071 20.2707 160.491 20.728 160.789 21.316C161.088 21.8947 161.237 22.562 161.237 23.318C161.237 24.0647 161.083 24.7273 160.775 25.306C160.477 25.8753 160.057 26.3233 159.515 26.65C158.974 26.9767 158.344 27.14 157.625 27.14ZM157.653 26.09C158.092 26.09 158.465 25.978 158.773 25.754C159.081 25.53 159.315 25.2127 159.473 24.802C159.641 24.382 159.725 23.878 159.725 23.29C159.725 22.702 159.641 22.198 159.473 21.778C159.315 21.358 159.077 21.036 158.759 20.812C158.451 20.5787 158.078 20.462 157.639 20.462C157.201 20.462 156.823 20.5787 156.505 20.812C156.197 21.036 155.959 21.358 155.791 21.778C155.623 22.198 155.539 22.702 155.539 23.29C155.539 23.878 155.623 24.382 155.791 24.802C155.959 25.2127 156.197 25.53 156.505 25.754C156.823 25.978 157.205 26.09 157.653 26.09ZM166.006 27.14C165.288 27.14 164.658 26.9813 164.116 26.664C163.575 26.3373 163.155 25.8893 162.856 25.32C162.558 24.7413 162.408 24.0787 162.408 23.332C162.408 22.5573 162.562 21.8807 162.87 21.302C163.178 20.714 163.603 20.2567 164.144 19.93C164.695 19.6033 165.32 19.44 166.02 19.44C166.748 19.44 167.378 19.608 167.91 19.944C168.452 20.2707 168.872 20.728 169.17 21.316C169.469 21.8947 169.618 22.562 169.618 23.318C169.618 24.0647 169.464 24.7273 169.156 25.306C168.858 25.8753 168.438 26.3233 167.896 26.65C167.355 26.9767 166.725 27.14 166.006 27.14ZM166.034 26.09C166.473 26.09 166.846 25.978 167.154 25.754C167.462 25.53 167.696 25.2127 167.854 24.802C168.022 24.382 168.106 23.878 168.106 23.29C168.106 22.702 168.022 22.198 167.854 21.778C167.696 21.358 167.458 21.036 167.14 20.812C166.832 20.5787 166.459 20.462 166.02 20.462C165.582 20.462 165.204 20.5787 164.886 20.812C164.578 21.036 164.34 21.358 164.172 21.778C164.004 22.198 163.92 22.702 163.92 23.29C163.92 23.878 164.004 24.382 164.172 24.802C164.34 25.2127 164.578 25.53 164.886 25.754C165.204 25.978 165.586 26.09 166.034 26.09ZM178.139 19.398C178.233 19.398 178.298 19.4167 178.335 19.454C178.382 19.4913 178.405 19.5567 178.405 19.65V20.28C178.405 20.3827 178.382 20.4573 178.335 20.504C178.298 20.5507 178.228 20.5693 178.125 20.56C177.976 20.5507 177.845 20.5507 177.733 20.56C177.621 20.5693 177.514 20.5927 177.411 20.63C177.178 20.7047 177.085 20.812 177.131 20.952C177.169 21.0453 177.211 21.162 177.257 21.302C177.304 21.4327 177.327 21.6007 177.327 21.806C177.327 22.2167 177.215 22.5947 176.991 22.94C176.767 23.2853 176.422 23.5607 175.955 23.766C175.489 23.9713 174.901 24.074 174.191 24.074C173.753 24.074 173.403 24.102 173.141 24.158C172.889 24.2047 172.707 24.2747 172.595 24.368C172.483 24.452 172.427 24.5407 172.427 24.634C172.427 24.774 172.516 24.8767 172.693 24.942C172.88 24.998 173.179 25.0353 173.589 25.054L175.451 25.166C176.319 25.2127 176.954 25.4133 177.355 25.768C177.757 26.1227 177.957 26.58 177.957 27.14C177.957 27.84 177.635 28.4 176.991 28.82C176.357 29.24 175.437 29.45 174.233 29.45C173.001 29.45 172.063 29.2867 171.419 28.96C170.785 28.6333 170.467 28.1573 170.467 27.532C170.467 27.2053 170.584 26.9207 170.817 26.678C171.051 26.4353 171.373 26.2207 171.783 26.034C171.895 25.9873 171.895 25.936 171.783 25.88C171.578 25.7773 171.41 25.656 171.279 25.516C171.149 25.3667 171.083 25.1893 171.083 24.984C171.083 24.8347 171.13 24.6947 171.223 24.564C171.326 24.424 171.466 24.2933 171.643 24.172C171.821 24.0507 172.031 23.948 172.273 23.864C172.32 23.8453 172.348 23.822 172.357 23.794C172.367 23.766 172.339 23.7333 172.273 23.696C171.863 23.4907 171.55 23.234 171.335 22.926C171.13 22.6087 171.027 22.2353 171.027 21.806C171.027 21.0967 171.307 20.532 171.867 20.112C172.437 19.6827 173.253 19.468 174.317 19.468C174.812 19.468 175.232 19.524 175.577 19.636C175.932 19.748 176.226 19.902 176.459 20.098C176.515 20.1447 176.571 20.168 176.627 20.168C176.683 20.168 176.735 20.14 176.781 20.084C176.893 19.972 177.024 19.8647 177.173 19.762C177.323 19.65 177.481 19.5613 177.649 19.496C177.817 19.4307 177.981 19.398 178.139 19.398ZM174.191 23.234C174.789 23.234 175.232 23.108 175.521 22.856C175.811 22.5947 175.955 22.2447 175.955 21.806C175.955 21.3487 175.811 20.9893 175.521 20.728C175.232 20.4573 174.789 20.322 174.191 20.322C173.613 20.322 173.165 20.4573 172.847 20.728C172.539 20.9893 172.385 21.3487 172.385 21.806C172.385 22.2447 172.539 22.5947 172.847 22.856C173.165 23.108 173.613 23.234 174.191 23.234ZM173.015 26.244C172.847 26.2347 172.665 26.2767 172.469 26.37C172.273 26.4633 172.101 26.594 171.951 26.762C171.811 26.93 171.741 27.126 171.741 27.35C171.741 27.6113 171.835 27.8353 172.021 28.022C172.208 28.218 172.493 28.3673 172.875 28.47C173.267 28.5727 173.767 28.624 174.373 28.624C175.101 28.624 175.657 28.5167 176.039 28.302C176.422 28.0967 176.613 27.784 176.613 27.364C176.613 27.084 176.511 26.8553 176.305 26.678C176.1 26.5007 175.764 26.398 175.297 26.37L173.015 26.244ZM181.238 26.734C181.238 26.8367 181.214 26.9067 181.168 26.944C181.13 26.9813 181.056 27 180.944 27H179.992C179.824 27 179.74 26.9253 179.74 26.776L179.768 16.822C179.768 16.682 179.828 16.612 179.95 16.612H181.056C181.177 16.612 181.238 16.682 181.238 16.822V26.734ZM184.346 23.808C184.346 24.228 184.444 24.6107 184.64 24.956C184.846 25.292 185.116 25.5627 185.452 25.768C185.798 25.964 186.18 26.062 186.6 26.062C187.03 26.062 187.412 25.9733 187.748 25.796C188.084 25.6187 188.392 25.3433 188.672 24.97C188.7 24.9327 188.728 24.914 188.756 24.914C188.784 24.9047 188.826 24.914 188.882 24.942L189.596 25.278C189.699 25.3247 189.708 25.3993 189.624 25.502C189.363 25.8847 189.074 26.1973 188.756 26.44C188.448 26.6827 188.103 26.86 187.72 26.972C187.338 27.084 186.913 27.14 186.446 27.14C185.737 27.14 185.112 26.9813 184.57 26.664C184.029 26.3467 183.6 25.9033 183.282 25.334C182.974 24.7647 182.82 24.1113 182.82 23.374C182.82 22.562 182.979 21.8667 183.296 21.288C183.614 20.7 184.043 20.2473 184.584 19.93C185.135 19.6033 185.746 19.44 186.418 19.44C187.109 19.44 187.711 19.594 188.224 19.902C188.747 20.2007 189.153 20.6347 189.442 21.204C189.732 21.7733 189.876 22.464 189.876 23.276C189.876 23.36 189.867 23.4347 189.848 23.5C189.83 23.556 189.769 23.584 189.666 23.584H184.486C184.44 23.584 184.402 23.6073 184.374 23.654C184.356 23.6913 184.346 23.7427 184.346 23.808ZM188.168 22.702C188.271 22.702 188.336 22.688 188.364 22.66C188.392 22.632 188.406 22.5807 188.406 22.506C188.406 22.1513 188.327 21.8153 188.168 21.498C188.019 21.1807 187.8 20.924 187.51 20.728C187.23 20.532 186.88 20.434 186.46 20.434C186.022 20.434 185.644 20.5413 185.326 20.756C185.018 20.9613 184.78 21.2367 184.612 21.582C184.454 21.9273 184.374 22.296 184.374 22.688L188.168 22.702Z" fill="#292929"/>
<rect x="0.5" y="0.5" width="233.5" height="43" rx="3.5" stroke="#50BCD9"/>
</svg>
