<svg width="235" height="44" viewBox="0 0 235 44" fill="none" xmlns="http://www.w3.org/2000/svg">
<rect x="1" y="0.5" width="233.5" height="43" rx="3.5" fill="white"/>
<circle cx="45.75" cy="22" r="8.75" fill="url(#paint0_linear_8880_124198)"/>
<path d="M49.0086 24.676L49.3972 22.2063H46.9658V20.6044C46.9658 19.9286 47.3048 19.2694 48.3938 19.2694H49.5V17.1669C49.5 17.1669 48.4966 17 47.5377 17C45.5343 17 44.226 18.1831 44.226 20.324V22.2063H42V24.676H44.226V30.6466C44.6729 30.715 45.1301 30.75 45.5959 30.75C46.0617 30.75 46.5189 30.737 46.9658 30.6686V24.676H49.0086Z" fill="white"/>
<path d="M64.982 16.822C64.982 16.682 65.0473 16.612 65.178 16.612H66.494C66.6153 16.612 66.676 16.682 66.676 16.822V25.572C66.676 25.6747 66.7227 25.726 66.816 25.726H71.548C71.6787 25.726 71.744 25.782 71.744 25.894V26.818C71.744 26.874 71.7253 26.9207 71.688 26.958C71.66 26.986 71.6133 27 71.548 27H65.22C65.1267 27 65.0613 26.9813 65.024 26.944C64.996 26.9067 64.982 26.8507 64.982 26.776V16.822ZM76.1118 27.14C75.3931 27.14 74.7631 26.9813 74.2218 26.664C73.6804 26.3373 73.2604 25.8893 72.9618 25.32C72.6631 24.7413 72.5138 24.0787 72.5138 23.332C72.5138 22.5573 72.6678 21.8807 72.9758 21.302C73.2838 20.714 73.7084 20.2567 74.2498 19.93C74.8004 19.6033 75.4258 19.44 76.1258 19.44C76.8538 19.44 77.4838 19.608 78.0158 19.944C78.5571 20.2707 78.9771 20.728 79.2758 21.316C79.5744 21.8947 79.7238 22.562 79.7238 23.318C79.7238 24.0647 79.5698 24.7273 79.2618 25.306C78.9631 25.8753 78.5431 26.3233 78.0018 26.65C77.4604 26.9767 76.8304 27.14 76.1118 27.14ZM76.1398 26.09C76.5784 26.09 76.9518 25.978 77.2598 25.754C77.5678 25.53 77.8011 25.2127 77.9598 24.802C78.1278 24.382 78.2118 23.878 78.2118 23.29C78.2118 22.702 78.1278 22.198 77.9598 21.778C77.8011 21.358 77.5631 21.036 77.2458 20.812C76.9378 20.5787 76.5644 20.462 76.1258 20.462C75.6871 20.462 75.3091 20.5787 74.9918 20.812C74.6838 21.036 74.4458 21.358 74.2778 21.778C74.1098 22.198 74.0258 22.702 74.0258 23.29C74.0258 23.878 74.1098 24.382 74.2778 24.802C74.4458 25.2127 74.6838 25.53 74.9918 25.754C75.3091 25.978 75.6918 26.09 76.1398 26.09ZM88.2446 19.398C88.338 19.398 88.4033 19.4167 88.4406 19.454C88.4873 19.4913 88.5106 19.5567 88.5106 19.65V20.28C88.5106 20.3827 88.4873 20.4573 88.4406 20.504C88.4033 20.5507 88.3333 20.5693 88.2306 20.56C88.0813 20.5507 87.9506 20.5507 87.8386 20.56C87.7266 20.5693 87.6193 20.5927 87.5166 20.63C87.2833 20.7047 87.19 20.812 87.2366 20.952C87.274 21.0453 87.316 21.162 87.3626 21.302C87.4093 21.4327 87.4326 21.6007 87.4326 21.806C87.4326 22.2167 87.3206 22.5947 87.0966 22.94C86.8726 23.2853 86.5273 23.5607 86.0606 23.766C85.594 23.9713 85.006 24.074 84.2966 24.074C83.858 24.074 83.508 24.102 83.2466 24.158C82.9946 24.2047 82.8126 24.2747 82.7006 24.368C82.5886 24.452 82.5326 24.5407 82.5326 24.634C82.5326 24.774 82.6213 24.8767 82.7986 24.942C82.9853 24.998 83.284 25.0353 83.6946 25.054L85.5566 25.166C86.4246 25.2127 87.0593 25.4133 87.4606 25.768C87.862 26.1227 88.0626 26.58 88.0626 27.14C88.0626 27.84 87.7406 28.4 87.0966 28.82C86.462 29.24 85.5426 29.45 84.3386 29.45C83.1066 29.45 82.1686 29.2867 81.5246 28.96C80.89 28.6333 80.5726 28.1573 80.5726 27.532C80.5726 27.2053 80.6893 26.9207 80.9226 26.678C81.156 26.4353 81.478 26.2207 81.8886 26.034C82.0006 25.9873 82.0006 25.936 81.8886 25.88C81.6833 25.7773 81.5153 25.656 81.3846 25.516C81.254 25.3667 81.1886 25.1893 81.1886 24.984C81.1886 24.8347 81.2353 24.6947 81.3286 24.564C81.4313 24.424 81.5713 24.2933 81.7486 24.172C81.926 24.0507 82.136 23.948 82.3786 23.864C82.4253 23.8453 82.4533 23.822 82.4626 23.794C82.472 23.766 82.444 23.7333 82.3786 23.696C81.968 23.4907 81.6553 23.234 81.4406 22.926C81.2353 22.6087 81.1326 22.2353 81.1326 21.806C81.1326 21.0967 81.4126 20.532 81.9726 20.112C82.542 19.6827 83.3586 19.468 84.4226 19.468C84.9173 19.468 85.3373 19.524 85.6826 19.636C86.0373 19.748 86.3313 19.902 86.5646 20.098C86.6206 20.1447 86.6766 20.168 86.7326 20.168C86.7886 20.168 86.84 20.14 86.8866 20.084C86.9986 19.972 87.1293 19.8647 87.2786 19.762C87.428 19.65 87.5866 19.5613 87.7546 19.496C87.9226 19.4307 88.086 19.398 88.2446 19.398ZM84.2966 23.234C84.894 23.234 85.3373 23.108 85.6266 22.856C85.916 22.5947 86.0606 22.2447 86.0606 21.806C86.0606 21.3487 85.916 20.9893 85.6266 20.728C85.3373 20.4573 84.894 20.322 84.2966 20.322C83.718 20.322 83.27 20.4573 82.9526 20.728C82.6446 20.9893 82.4906 21.3487 82.4906 21.806C82.4906 22.2447 82.6446 22.5947 82.9526 22.856C83.27 23.108 83.718 23.234 84.2966 23.234ZM83.1206 26.244C82.9526 26.2347 82.7706 26.2767 82.5746 26.37C82.3786 26.4633 82.206 26.594 82.0566 26.762C81.9166 26.93 81.8466 27.126 81.8466 27.35C81.8466 27.6113 81.94 27.8353 82.1266 28.022C82.3133 28.218 82.598 28.3673 82.9806 28.47C83.3726 28.5727 83.872 28.624 84.4786 28.624C85.2066 28.624 85.762 28.5167 86.1446 28.302C86.5273 28.0967 86.7186 27.784 86.7186 27.364C86.7186 27.084 86.616 26.8553 86.4106 26.678C86.2053 26.5007 85.8693 26.398 85.4026 26.37L83.1206 26.244ZM91.3292 26.734C91.3292 26.8367 91.3059 26.9067 91.2592 26.944C91.2219 26.9813 91.1519 27 91.0492 27H90.0972C89.9946 27 89.9246 26.986 89.8872 26.958C89.8592 26.9207 89.8452 26.86 89.8452 26.776V19.79C89.8452 19.65 89.9106 19.58 90.0412 19.58H91.1612C91.2732 19.58 91.3292 19.6453 91.3292 19.776V26.734ZM91.3712 18.096C91.3712 18.292 91.2779 18.39 91.0912 18.39H90.0552C89.9526 18.39 89.8826 18.3667 89.8452 18.32C89.8172 18.2733 89.8032 18.208 89.8032 18.124V16.85C89.8032 16.6913 89.8732 16.612 90.0132 16.612H91.1752C91.3059 16.612 91.3712 16.6867 91.3712 16.836V18.096ZM93.5282 27C93.3789 27 93.3042 26.9253 93.3042 26.776V19.79C93.3042 19.65 93.3649 19.58 93.4862 19.58H94.5922C94.7042 19.58 94.7602 19.6407 94.7602 19.762V20.532C94.7602 20.5787 94.7696 20.6113 94.7882 20.63C94.8162 20.6393 94.8536 20.6207 94.9002 20.574C95.1896 20.3407 95.4649 20.14 95.7262 19.972C95.9876 19.7947 96.2536 19.664 96.5242 19.58C96.7949 19.4867 97.0889 19.44 97.4062 19.44C98.1156 19.44 98.6662 19.636 99.0582 20.028C99.4502 20.42 99.6462 20.938 99.6462 21.582V26.748C99.6462 26.916 99.5669 27 99.4082 27H98.3722C98.2976 27 98.2416 26.986 98.2042 26.958C98.1762 26.9207 98.1622 26.86 98.1622 26.776V21.876C98.1622 21.4653 98.0549 21.1433 97.8402 20.91C97.6256 20.6767 97.2942 20.56 96.8462 20.56C96.5942 20.56 96.3609 20.602 96.1462 20.686C95.9316 20.7607 95.7169 20.8773 95.5022 21.036C95.2876 21.1853 95.0496 21.3767 94.7882 21.61V26.762C94.7882 26.9207 94.6996 27 94.5222 27H93.5282ZM114.203 19.58C114.278 19.58 114.329 19.6033 114.357 19.65C114.385 19.6967 114.385 19.7527 114.357 19.818L112.173 26.804C112.155 26.8787 112.122 26.93 112.075 26.958C112.038 26.986 111.977 27 111.893 27H111.081C110.913 27 110.806 26.93 110.759 26.79L109.247 21.988C109.21 21.904 109.173 21.862 109.135 21.862C109.107 21.862 109.084 21.904 109.065 21.988L107.595 26.804C107.577 26.8787 107.544 26.93 107.497 26.958C107.46 26.986 107.404 27 107.329 27H106.461C106.293 27 106.191 26.93 106.153 26.79L103.927 19.832C103.909 19.7573 103.913 19.6967 103.941 19.65C103.969 19.6033 104.021 19.58 104.095 19.58H105.187C105.243 19.58 105.295 19.5987 105.341 19.636C105.388 19.664 105.421 19.706 105.439 19.762L106.979 24.746C106.998 24.83 107.026 24.872 107.063 24.872C107.11 24.872 107.147 24.8253 107.175 24.732L108.687 19.748C108.706 19.692 108.734 19.65 108.771 19.622C108.809 19.594 108.86 19.58 108.925 19.58H109.737C109.793 19.58 109.845 19.5987 109.891 19.636C109.938 19.664 109.966 19.706 109.975 19.762L111.543 24.746C111.571 24.83 111.604 24.872 111.641 24.872C111.679 24.872 111.711 24.8253 111.739 24.732L113.223 19.748C113.251 19.7013 113.284 19.664 113.321 19.636C113.368 19.5987 113.424 19.58 113.489 19.58H114.203ZM117.224 26.734C117.224 26.8367 117.2 26.9067 117.154 26.944C117.116 26.9813 117.046 27 116.944 27H115.992C115.889 27 115.819 26.986 115.782 26.958C115.754 26.9207 115.74 26.86 115.74 26.776V19.79C115.74 19.65 115.805 19.58 115.936 19.58H117.056C117.168 19.58 117.224 19.6453 117.224 19.776V26.734ZM117.266 18.096C117.266 18.292 117.172 18.39 116.986 18.39H115.95C115.847 18.39 115.777 18.3667 115.74 18.32C115.712 18.2733 115.698 18.208 115.698 18.124V16.85C115.698 16.6913 115.768 16.612 115.908 16.612H117.07C117.2 16.612 117.266 16.6867 117.266 16.836V18.096ZM121.523 20.644C121.439 20.644 121.397 20.6907 121.397 20.784V24.886C121.397 25.2873 121.471 25.5627 121.621 25.712C121.77 25.852 121.999 25.922 122.307 25.922H123.203C123.259 25.922 123.301 25.9407 123.329 25.978C123.357 26.006 123.371 26.0433 123.371 26.09V26.692C123.371 26.8133 123.301 26.8927 123.161 26.93C123.039 26.9487 122.89 26.9627 122.713 26.972C122.535 26.9813 122.358 26.9907 122.181 27C122.013 27 121.863 27 121.733 27C121.126 27 120.669 26.86 120.361 26.58C120.062 26.2907 119.913 25.8473 119.913 25.25V20.812C119.913 20.7 119.866 20.644 119.773 20.644H118.723C118.601 20.644 118.541 20.588 118.541 20.476V19.734C118.541 19.6313 118.597 19.58 118.709 19.58H119.829C119.903 19.58 119.941 19.538 119.941 19.454L120.109 17.256C120.118 17.1253 120.174 17.06 120.277 17.06H121.243C121.364 17.06 121.425 17.1347 121.425 17.284V19.454C121.425 19.538 121.467 19.58 121.551 19.58H123.231C123.343 19.58 123.399 19.6313 123.399 19.734V20.476C123.399 20.588 123.333 20.644 123.203 20.644H121.523ZM125.056 27C124.907 27 124.832 26.9253 124.832 26.776V16.822C124.832 16.682 124.888 16.612 125 16.612H126.106C126.218 16.612 126.274 16.6727 126.274 16.794V20.49C126.274 20.5367 126.283 20.5693 126.302 20.588C126.33 20.5973 126.367 20.5787 126.414 20.532C126.731 20.28 127.021 20.0747 127.282 19.916C127.553 19.7573 127.819 19.6407 128.08 19.566C128.351 19.482 128.635 19.44 128.934 19.44C129.653 19.44 130.203 19.636 130.586 20.028C130.969 20.4107 131.16 20.9333 131.16 21.596V26.748C131.16 26.916 131.081 27 130.922 27H129.886C129.811 27 129.755 26.986 129.718 26.958C129.69 26.9207 129.676 26.86 129.676 26.776V21.876C129.676 21.4653 129.569 21.1433 129.354 20.91C129.149 20.6767 128.822 20.56 128.374 20.56C128.122 20.56 127.884 20.602 127.66 20.686C127.445 20.7607 127.231 20.8773 127.016 21.036C126.801 21.1853 126.568 21.3767 126.316 21.61V26.762C126.316 26.9207 126.227 27 126.05 27H125.056ZM136.267 16.822C136.267 16.682 136.332 16.612 136.463 16.612H142.861C142.973 16.612 143.029 16.6727 143.029 16.794L143.015 17.676C143.015 17.816 142.945 17.886 142.805 17.886H138.171C138.031 17.886 137.961 17.9467 137.961 18.068V21.12C137.961 21.232 138.022 21.288 138.143 21.288H141.657C141.769 21.288 141.825 21.344 141.825 21.456V22.38C141.825 22.4827 141.769 22.534 141.657 22.534H138.129C138.017 22.534 137.961 22.59 137.961 22.702V26.776C137.961 26.9253 137.877 27 137.709 27H136.505C136.412 27 136.346 26.986 136.309 26.958C136.281 26.9207 136.267 26.86 136.267 26.776V16.822ZM147.529 26.16C147.203 26.4773 146.843 26.72 146.451 26.888C146.059 27.056 145.616 27.14 145.121 27.14C144.403 27.14 143.838 26.9533 143.427 26.58C143.017 26.2067 142.811 25.7167 142.811 25.11C142.811 24.5967 142.956 24.158 143.245 23.794C143.544 23.43 143.973 23.1407 144.533 22.926C145.103 22.7113 145.793 22.5853 146.605 22.548L147.515 22.478C147.571 22.4687 147.623 22.45 147.669 22.422C147.716 22.394 147.739 22.3427 147.739 22.268V21.918C147.739 21.4607 147.599 21.1013 147.319 20.84C147.039 20.5693 146.657 20.434 146.171 20.434C145.807 20.434 145.471 20.518 145.163 20.686C144.855 20.854 144.58 21.1153 144.337 21.47C144.309 21.5167 144.281 21.5493 144.253 21.568C144.225 21.5867 144.174 21.5867 144.099 21.568L143.147 21.288C143.11 21.2693 143.082 21.246 143.063 21.218C143.054 21.1807 143.068 21.1153 143.105 21.022C143.376 20.518 143.773 20.1307 144.295 19.86C144.827 19.58 145.476 19.44 146.241 19.44C146.913 19.44 147.464 19.538 147.893 19.734C148.323 19.9207 148.64 20.196 148.845 20.56C149.06 20.9147 149.167 21.3347 149.167 21.82V26.762C149.167 26.8553 149.149 26.9207 149.111 26.958C149.083 26.986 149.032 27 148.957 27H148.005C147.94 27 147.889 26.9767 147.851 26.93C147.814 26.874 147.791 26.804 147.781 26.72L147.767 26.188C147.739 26.0387 147.66 26.0293 147.529 26.16ZM147.739 23.514C147.739 23.3553 147.674 23.2853 147.543 23.304L146.787 23.36C146.414 23.3787 146.073 23.43 145.765 23.514C145.457 23.5887 145.191 23.6913 144.967 23.822C144.753 23.9527 144.58 24.1113 144.449 24.298C144.328 24.4753 144.267 24.6853 144.267 24.928C144.267 25.292 144.393 25.5813 144.645 25.796C144.907 26.0013 145.257 26.104 145.695 26.104C145.975 26.104 146.237 26.0573 146.479 25.964C146.731 25.8613 146.951 25.7353 147.137 25.586C147.324 25.4273 147.469 25.264 147.571 25.096C147.683 24.928 147.739 24.7647 147.739 24.606V23.514ZM154.246 19.44C154.769 19.44 155.221 19.5287 155.604 19.706C155.996 19.874 156.323 20.1027 156.584 20.392C156.855 20.672 157.069 20.9753 157.228 21.302C157.284 21.4327 157.251 21.512 157.13 21.54L156.136 21.708C156.052 21.7267 155.991 21.6893 155.954 21.596C155.795 21.3533 155.637 21.1527 155.478 20.994C155.319 20.8353 155.147 20.7093 154.96 20.616C154.773 20.5227 154.559 20.476 154.316 20.476C153.887 20.476 153.509 20.588 153.182 20.812C152.865 21.0267 152.617 21.344 152.44 21.764C152.272 22.184 152.188 22.6927 152.188 23.29C152.188 23.8873 152.277 24.4007 152.454 24.83C152.631 25.25 152.883 25.572 153.21 25.796C153.537 26.0107 153.924 26.118 154.372 26.118C154.811 26.118 155.179 26.006 155.478 25.782C155.777 25.558 156.052 25.2407 156.304 24.83C156.332 24.7927 156.355 24.7693 156.374 24.76C156.402 24.7507 156.444 24.7553 156.5 24.774L157.242 24.998C157.317 25.026 157.335 25.096 157.298 25.208C157.186 25.4413 157.037 25.6747 156.85 25.908C156.673 26.1413 156.458 26.3513 156.206 26.538C155.963 26.7153 155.679 26.86 155.352 26.972C155.025 27.084 154.657 27.14 154.246 27.14C153.546 27.14 152.925 26.9813 152.384 26.664C151.852 26.3373 151.432 25.8893 151.124 25.32C150.825 24.7413 150.676 24.074 150.676 23.318C150.676 22.5527 150.83 21.8807 151.138 21.302C151.446 20.7233 151.866 20.2707 152.398 19.944C152.939 19.608 153.555 19.44 154.246 19.44ZM159.749 23.808C159.749 24.228 159.847 24.6107 160.043 24.956C160.248 25.292 160.519 25.5627 160.855 25.768C161.2 25.964 161.583 26.062 162.003 26.062C162.432 26.062 162.815 25.9733 163.151 25.796C163.487 25.6187 163.795 25.3433 164.075 24.97C164.103 24.9327 164.131 24.914 164.159 24.914C164.187 24.9047 164.229 24.914 164.285 24.942L164.999 25.278C165.101 25.3247 165.111 25.3993 165.027 25.502C164.765 25.8847 164.476 26.1973 164.159 26.44C163.851 26.6827 163.505 26.86 163.123 26.972C162.74 27.084 162.315 27.14 161.849 27.14C161.139 27.14 160.514 26.9813 159.973 26.664C159.431 26.3467 159.002 25.9033 158.685 25.334C158.377 24.7647 158.223 24.1113 158.223 23.374C158.223 22.562 158.381 21.8667 158.699 21.288C159.016 20.7 159.445 20.2473 159.987 19.93C160.537 19.6033 161.149 19.44 161.821 19.44C162.511 19.44 163.113 19.594 163.627 19.902C164.149 20.2007 164.555 20.6347 164.845 21.204C165.134 21.7733 165.279 22.464 165.279 23.276C165.279 23.36 165.269 23.4347 165.251 23.5C165.232 23.556 165.171 23.584 165.069 23.584H159.889C159.842 23.584 159.805 23.6073 159.777 23.654C159.758 23.6913 159.749 23.7427 159.749 23.808ZM163.571 22.702C163.673 22.702 163.739 22.688 163.767 22.66C163.795 22.632 163.809 22.5807 163.809 22.506C163.809 22.1513 163.729 21.8153 163.571 21.498C163.421 21.1807 163.202 20.924 162.913 20.728C162.633 20.532 162.283 20.434 161.863 20.434C161.424 20.434 161.046 20.5413 160.729 20.756C160.421 20.9613 160.183 21.2367 160.015 21.582C159.856 21.9273 159.777 22.296 159.777 22.688L163.571 22.702ZM167.015 27C166.922 27 166.857 26.9813 166.819 26.944C166.782 26.9067 166.763 26.8413 166.763 26.748V16.822C166.763 16.682 166.829 16.612 166.959 16.612H168.079C168.191 16.612 168.247 16.682 168.247 16.822V20.21C168.247 20.3033 168.266 20.3547 168.303 20.364C168.35 20.3733 168.406 20.35 168.471 20.294C168.574 20.1913 168.719 20.0747 168.905 19.944C169.101 19.8133 169.339 19.6967 169.619 19.594C169.909 19.4913 170.24 19.44 170.613 19.44C171.285 19.44 171.841 19.608 172.279 19.944C172.718 20.2707 173.045 20.7187 173.259 21.288C173.483 21.8573 173.595 22.5107 173.595 23.248C173.595 24.4427 173.315 25.39 172.755 26.09C172.205 26.79 171.421 27.14 170.403 27.14C170.002 27.14 169.652 27.0793 169.353 26.958C169.055 26.8367 168.807 26.6873 168.611 26.51C168.415 26.3327 168.261 26.174 168.149 26.034C168.112 25.9873 168.075 25.9687 168.037 25.978C168.009 25.978 167.995 26.0107 167.995 26.076L167.883 26.762C167.855 26.9207 167.762 27 167.603 27H167.015ZM168.247 24.48C168.247 24.7973 168.331 25.082 168.499 25.334C168.677 25.586 168.901 25.7867 169.171 25.936C169.451 26.076 169.75 26.146 170.067 26.146C170.45 26.146 170.791 26.048 171.089 25.852C171.397 25.656 171.635 25.348 171.803 24.928C171.981 24.4987 172.069 23.948 172.069 23.276C172.069 22.352 171.906 21.652 171.579 21.176C171.253 20.7 170.772 20.462 170.137 20.462C169.755 20.462 169.4 20.5507 169.073 20.728C168.747 20.9053 168.471 21.1293 168.247 21.4V24.48ZM178.391 27.14C177.672 27.14 177.042 26.9813 176.501 26.664C175.96 26.3373 175.54 25.8893 175.241 25.32C174.942 24.7413 174.793 24.0787 174.793 23.332C174.793 22.5573 174.947 21.8807 175.255 21.302C175.563 20.714 175.988 20.2567 176.529 19.93C177.08 19.6033 177.705 19.44 178.405 19.44C179.133 19.44 179.763 19.608 180.295 19.944C180.836 20.2707 181.256 20.728 181.555 21.316C181.854 21.8947 182.003 22.562 182.003 23.318C182.003 24.0647 181.849 24.7273 181.541 25.306C181.242 25.8753 180.822 26.3233 180.281 26.65C179.74 26.9767 179.11 27.14 178.391 27.14ZM178.419 26.09C178.858 26.09 179.231 25.978 179.539 25.754C179.847 25.53 180.08 25.2127 180.239 24.802C180.407 24.382 180.491 23.878 180.491 23.29C180.491 22.702 180.407 22.198 180.239 21.778C180.08 21.358 179.842 21.036 179.525 20.812C179.217 20.5787 178.844 20.462 178.405 20.462C177.966 20.462 177.588 20.5787 177.271 20.812C176.963 21.036 176.725 21.358 176.557 21.778C176.389 22.198 176.305 22.702 176.305 23.29C176.305 23.878 176.389 24.382 176.557 24.802C176.725 25.2127 176.963 25.53 177.271 25.754C177.588 25.978 177.971 26.09 178.419 26.09ZM186.772 27.14C186.053 27.14 185.423 26.9813 184.882 26.664C184.341 26.3373 183.921 25.8893 183.622 25.32C183.323 24.7413 183.174 24.0787 183.174 23.332C183.174 22.5573 183.328 21.8807 183.636 21.302C183.944 20.714 184.369 20.2567 184.91 19.93C185.461 19.6033 186.086 19.44 186.786 19.44C187.514 19.44 188.144 19.608 188.676 19.944C189.217 20.2707 189.637 20.728 189.936 21.316C190.235 21.8947 190.384 22.562 190.384 23.318C190.384 24.0647 190.23 24.7273 189.922 25.306C189.623 25.8753 189.203 26.3233 188.662 26.65C188.121 26.9767 187.491 27.14 186.772 27.14ZM186.8 26.09C187.239 26.09 187.612 25.978 187.92 25.754C188.228 25.53 188.461 25.2127 188.62 24.802C188.788 24.382 188.872 23.878 188.872 23.29C188.872 22.702 188.788 22.198 188.62 21.778C188.461 21.358 188.223 21.036 187.906 20.812C187.598 20.5787 187.225 20.462 186.786 20.462C186.347 20.462 185.969 20.5787 185.652 20.812C185.344 21.036 185.106 21.358 184.938 21.778C184.77 22.198 184.686 22.702 184.686 23.29C184.686 23.878 184.77 24.382 184.938 24.802C185.106 25.2127 185.344 25.53 185.652 25.754C185.969 25.978 186.352 26.09 186.8 26.09ZM198.667 26.734C198.704 26.7993 198.709 26.86 198.681 26.916C198.662 26.972 198.606 27 198.513 27H197.267C197.201 27 197.145 26.9813 197.099 26.944C197.052 26.9067 197.015 26.8553 196.987 26.79L195.069 23.402C195.05 23.346 195.027 23.3133 194.999 23.304C194.971 23.2947 194.933 23.318 194.887 23.374L193.557 24.704C193.519 24.7413 193.491 24.7833 193.473 24.83C193.454 24.8673 193.445 24.9233 193.445 24.998V26.734C193.445 26.8367 193.421 26.9067 193.375 26.944C193.337 26.9813 193.267 27 193.165 27H192.199C192.105 27 192.04 26.986 192.003 26.958C191.975 26.9207 191.961 26.86 191.961 26.776V16.822C191.961 16.682 192.021 16.612 192.143 16.612H193.263C193.384 16.612 193.445 16.682 193.445 16.822V23.08C193.445 23.1453 193.454 23.1873 193.473 23.206C193.501 23.2153 193.543 23.192 193.599 23.136L196.791 19.762C196.912 19.6407 197.019 19.58 197.113 19.58H198.163C198.275 19.58 198.34 19.608 198.359 19.664C198.377 19.72 198.345 19.79 198.261 19.874L196.133 22.044C196.095 22.0813 196.072 22.1187 196.063 22.156C196.053 22.1933 196.067 22.254 196.105 22.338L198.667 26.734Z" fill="#292929"/>
<rect x="1" y="0.5" width="233.5" height="43" rx="3.5" stroke="#50BCD9"/>
<defs>
<linearGradient id="paint0_linear_8880_124198" x1="45.75" y1="13.25" x2="45.75" y2="30.6981" gradientUnits="userSpaceOnUse">
<stop stop-color="#18ACFE"/>
<stop offset="1" stop-color="#0163E0"/>
</linearGradient>
</defs>
</svg>
